<svg xmlns="http://www.w3.org/2000/svg" width="400" height="400" viewBox="0 0 124 124" fill="none">
<path d="M63.3 84.7c0.4-4.3 0.8-7.9 0.8-8.1 0.1-0.2 0.2-0.3 0.3-0.3 0.1 0 1.7 1.3 3.5 3 1.8 1.6 3.6 3.2 3.9 3.5l0.6 0.5-0.6-0.7c-0.3-0.4-1.8-2-3.3-3.5-3.8-4-3.5-3.7-2.9-3.9 0.3-0.1 4.1-0.6 8.5-1.1 4.4-0.5 8.3-1 8.6-1.1 0.4-0.1-1.9-0.4-7.8-1.1-9.5-1.1-9.6-1.1-9.6-1.4 0-0.1 1-1.3 2.3-2.7 5.5-5.9 5.5-6.1 0.3-1.3-1.7 1.6-3.3 2.9-3.4 3-0.2 0-0.3-0.1-0.4-0.4-0.1-0.5-1.3-14.1-1.8-19.5-0.1-1.7-0.3-3.1-0.3-3-0.1 0.1-1.5 14.9-1.9 19.4-0.3 3.2-0.3 3.6-0.7 3.5-0.2 0-1.8-1.4-3.6-3.1-5.1-4.6-5.1-4.5 0.9 1.9 1 1.1 1.8 2 1.8 2.2 0 0.3-0.8 0.4-10.3 1.5-5 0.6-7.2 0.9-6.8 1 0.3 0.1 3.8 0.5 7.8 1 7.6 0.9 9.1 1.1 9.4 1.4 0.1 0.1-1.2 1.6-2.8 3.4-1.6 1.8-3.3 3.5-3.6 3.9l-0.6 0.7 0.8-0.6c0.4-0.3 2.2-1.9 3.9-3.5 1.7-1.6 3.2-2.9 3.3-2.9 0.1 0 0.2 0.2 0.3 0.4 0.2 0.5 0.6 5.3 1.3 13.2 0.8 9.5 0.8 9.4 1.2 5.8 0.1-1.7 0.6-6.6 1-10.9z" 
      fill="black" 
      transform="translate(0, -20) scale(2.0)" 
      transform-origin="center"/>
</svg>